<?xml version="1.0" encoding="utf-8"?>
<!-- Generator: Adobe Illustrator 19.0.0, SVG Export Plug-In . SVG Version: 6.00 Build 0)  -->
<svg version="1.1" id="Layer_1" xmlns="http://www.w3.org/2000/svg" xmlns:xlink="http://www.w3.org/1999/xlink" x="0px" y="0px"
	 viewBox="0 0 30 20" enable-background="new 0 0 30 20" xml:space="preserve">
<path id="XMLID_18_" fill="#1B9C94" d="M22,17.7H8c-2.8,0-5-2.2-5-5V7c0-2.8,2.2-5,5-5h14c2.8,0,5,2.2,5,5v5.7
	C27,15.4,24.8,17.7,22,17.7z"/>
<g id="XMLID_6_">
	<g id="XMLID_11_">
		<path id="XMLID_15_" fill="#FFFFFF" d="M10.2,11.4H8l-0.5,1.2c-0.1,0.3-0.2,0.3-0.5,0.3H6.5c-0.2,0-0.4-0.2-0.3-0.3l2.1-5.3
			C8.4,7,8.4,6.9,8.7,6.9h0.8C9.8,6.9,9.9,7,10,7.3l2.1,5.3c0.1,0.1-0.1,0.3-0.3,0.3h-0.7c-0.3,0-0.4-0.1-0.5-0.3L10.2,11.4z
			 M8.3,10.4h1.6L9.1,8.2L8.3,10.4z"/>
		<path id="XMLID_12_" fill="#FFFFFF" d="M13,12.5V7.4C13,7.2,13.1,7,13.4,7h1.8c2,0,3.2,1.1,3.2,2.9c0,1.8-1.2,3-3.3,3h-1.8
			C13.1,12.9,13,12.7,13,12.5z M15.1,11.7c1.2,0,1.9-0.7,1.9-1.8c0-1.1-0.7-1.8-1.9-1.8h-0.8v3.6H15.1z"/>
	</g>
	<path id="XMLID_9_" fill="#FFFFFF" d="M19.6,6.1l-0.8,0.6c0.7,0.9,1.1,1.9,1.1,3.1c0,1.1-0.4,2.2-1.1,3l0.8,0.7
		c0.8-1,1.3-2.3,1.3-3.7C20.9,8.4,20.4,7.1,19.6,6.1z"/>
	<path id="XMLID_7_" fill="#FFFFFF" d="M22.4,6.1l-0.8,0.6c0.7,0.9,1.1,1.9,1.1,3.1c0,1.1-0.4,2.2-1.1,3l0.8,0.7
		c0.8-1,1.3-2.3,1.3-3.7C23.8,8.4,23.3,7.1,22.4,6.1z"/>
</g>
<g id="XMLID_5_">
</g>
<g id="XMLID_19_">
</g>
<g id="XMLID_20_">
</g>
<g id="XMLID_21_">
</g>
<g id="XMLID_22_">
</g>
<g id="XMLID_23_">
</g>
</svg>
