<?xml version="1.0" encoding="utf-8"?>
<!-- Generator: Adobe Illustrator 19.0.0, SVG Export Plug-In . SVG Version: 6.00 Build 0)  -->
<svg version="1.1" id="Layer_1" xmlns="http://www.w3.org/2000/svg" xmlns:xlink="http://www.w3.org/1999/xlink" x="0px" y="0px"
	 viewBox="0 0 30 20" enable-background="new 0 0 30 20" xml:space="preserve">
<path id="XMLID_11_" fill="#1F140F" d="M22,17.7H8c-2.8,0-5-2.2-5-5V7c0-2.8,2.2-5,5-5h14c2.8,0,5,2.2,5,5v5.7
	C27,15.4,24.8,17.7,22,17.7z"/>
<g id="XMLID_6_">
	<path id="XMLID_9_" fill="#FFFFFF" d="M9,9.8c0-1.8,1.2-3.1,3.1-3.1c1.1,0,1.9,0.5,2.4,1c0.1,0.1,0.1,0.2,0,0.4l-0.5,0.6
		c-0.1,0.1-0.3,0.1-0.4,0C13.2,8.3,12.8,8,12,8c-1,0-1.7,0.7-1.7,1.9c0,1.1,0.7,1.9,1.7,1.9c0.7,0,1.1-0.4,1.5-0.7
		c0.1-0.1,0.3-0.1,0.4,0l0.5,0.6c0.1,0.1,0.1,0.2,0,0.4c-0.5,0.5-1.2,1-2.4,1C10.2,12.9,9,11.6,9,9.8z"/>
	<path id="XMLID_7_" fill="#FFFFFF" d="M15.5,9.8c0-1.8,1.2-3.1,3.1-3.1c1.1,0,1.9,0.5,2.4,1c0.1,0.1,0.1,0.2,0,0.4l-0.5,0.6
		c-0.1,0.1-0.3,0.1-0.4,0C19.7,8.3,19.3,8,18.5,8c-1,0-1.7,0.7-1.7,1.9c0,1.1,0.7,1.9,1.7,1.9c0.7,0,1.1-0.4,1.5-0.7
		c0.1-0.1,0.3-0.1,0.4,0l0.5,0.6c0.1,0.1,0.1,0.2,0,0.4c-0.5,0.5-1.2,1-2.4,1C16.7,12.9,15.5,11.6,15.5,9.8z"/>
</g>
<g id="XMLID_5_">
</g>
<g id="XMLID_12_">
</g>
<g id="XMLID_13_">
</g>
<g id="XMLID_14_">
</g>
<g id="XMLID_15_">
</g>
<g id="XMLID_16_">
</g>
</svg>
