<?xml version="1.0" encoding="utf-8"?>
<!-- Generator: Adobe Illustrator 19.0.0, SVG Export Plug-In . SVG Version: 6.00 Build 0)  -->
<svg version="1.1" id="Layer_1" xmlns="http://www.w3.org/2000/svg" xmlns:xlink="http://www.w3.org/1999/xlink" x="0px" y="0px"
	 viewBox="0 0 30 20" enable-background="new 0 0 30 20" xml:space="preserve">
<path fill="#0063A4" d="M21.4,17.6h-13c-2.8,0-5-2.2-5-5v-5c0-2.8,2.2-5,5-5h13c2.8,0,5,2.2,5,5v5C26.4,15.3,24.1,17.6,21.4,17.6z"
	/>
<g>
	<path fill="#FFFFFF" d="M9,12.6v-5c0-0.2,0.1-0.4,0.3-0.4h0.6c0.2,0,0.4,0.1,0.4,0.4v1.9h2.5V7.6c0-0.2,0.1-0.4,0.3-0.4h0.6
		c0.2,0,0.4,0.1,0.4,0.4v5c0,0.2-0.1,0.4-0.4,0.4h-0.6c-0.2,0-0.3-0.1-0.3-0.4v-1.9h-2.5v1.9c0,0.2-0.1,0.4-0.4,0.4H9.3
		C9.1,12.9,9,12.8,9,12.6z"/>
	<path fill="#FFFFFF" d="M15.5,12.5V7.7c0-0.3,0.2-0.4,0.4-0.4h1.7c1.9,0,3.1,1.1,3.1,2.8c0,1.8-1.2,2.9-3.1,2.9h-1.7
		C15.7,12.9,15.5,12.8,15.5,12.5z M17.6,11.8c1.1,0,1.8-0.6,1.8-1.7c0-1.1-0.7-1.7-1.8-1.7h-0.8v3.5H17.6z"/>
</g>
<g id="XMLID_1_">
</g>
<g id="XMLID_2_">
</g>
<g id="XMLID_3_">
</g>
<g id="XMLID_4_">
</g>
<g id="XMLID_5_">
</g>
<g id="XMLID_6_">
</g>
</svg>
