<?xml version="1.0" encoding="utf-8"?>
<!-- Generator: Adobe Illustrator 19.0.0, SVG Export Plug-In . SVG Version: 6.00 Build 0)  -->
<svg version="1.1" id="Layer_1" xmlns="http://www.w3.org/2000/svg" xmlns:xlink="http://www.w3.org/1999/xlink" x="0px" y="0px"
	 viewBox="135 -14 360 38" enable-background="new 135 -14 360 38" xml:space="preserve">
<g display="none">
	<polygon display="inline" fill="#FFFFFF" points="180.8,4.7 180.8,-8.9 180.2,-8.9 180.2,4.7 166.6,4.7 166.6,5.3 180.2,5.3 
		180.2,18.9 180.8,18.9 180.8,5.3 194.4,5.3 194.4,4.7 	"/>
	<path display="inline" fill="#FFFFFF" d="M137.5,18.1l15-29.4c0.5-1,1.4-1.6,2.4-1.7c0,0,0,0,0.1,0c0.1,0,0.2,0,0.2,0
		c0,0,0.1,0,0.1,0c0.1,0,0.1,0,0.2,0c0.1,0,0.1,0,0.2,0c0,0,0.1,0,0.1,0c0.1,0,0.2,0,0.2,0c0,0,0,0,0.1,0c1,0.2,1.9,0.8,2.4,1.7
		l15,29.4c0.8,1.6,0.2,3.6-1.4,4.4c-1.6,0.8-3.6,0.2-4.4-1.4L155.5-2.6l-12.1,23.7c-0.8,1.6-2.8,2.3-4.4,1.4
		C137.3,21.7,136.6,19.7,137.5,18.1z"/>
	<path display="inline" fill="#FFFFFF" d="M187.5-8.3l15,29.4c0.5,1,1.4,1.6,2.4,1.7c0,0,0,0,0.1,0c0.1,0,0.1,0,0.2,0
		c0,0,0.1,0,0.1,0c0.1,0,0.1,0,0.2,0c0.1,0,0.1,0,0.2,0c0,0,0.1,0,0.1,0c0.1,0,0.1,0,0.2,0c0,0,0,0,0.1,0c1-0.2,1.9-0.8,2.4-1.7
		l15-29.4c0.8-1.6,0.2-3.6-1.4-4.4c-1.6-0.8-3.6-0.2-4.4,1.4l-12.1,23.7l-12.1-23.7c-0.8-1.6-2.8-2.3-4.4-1.4
		C187.3-11.9,186.6-9.9,187.5-8.3z"/>
</g>
<g>
	<g>
		<g>
			<path fill="#008295" d="M271.4,0.3C271.4,0.2,271.3,0.2,271.4,0.3L271.3,18c0,0.1,0,0.1,0.1,0l9.2-8.8c0.1-0.1,0.1-0.1,0-0.2
				L271.4,0.3z"/>
			<path fill="#008295" d="M268.9,0.3C268.9,0.2,269,0.2,268.9,0.3l0.1,17.6c0,0.1-0.1,0.1-0.1,0.1h-17.3c-0.1,0-0.1,0-0.1,0
				L268.9,0.3z"/>
			<g>
				<g>
					<path fill="#D1CCC3" d="M251.5,0.3C251.4,0.2,251.4,0.2,251.5,0.3l-0.1,17.6c0,0.1,0.1,0.1,0.1,0.1h17.3c0.1,0,0.1,0,0.1,0
						L251.5,0.3z"/>
				</g>
			</g>
			<g>
				<g>
					<path fill="#D1CCC3" d="M249.1,0.3C249.1,0.3,249.1,0.3,249.1,0.3C249.1,0.3,249.1,0.3,249.1,0.3
						C249.1,0.3,249.1,0.4,249.1,0.3C249.1,0.3,249.1,0.3,249.1,0.3C249.1,0.3,249.1,0.3,249.1,0.3C249.1,0.3,249.1,0.3,249.1,0.3
						C249.1,0.3,249.1,0.3,249.1,0.3c0-0.1-0.1-0.1-0.1-0.1h-8.7c-0.1,0-0.1,0-0.1,0.1c0,0,0,0,0,0.1v0h0v17.5v0v0
						c0,0,0,0.1,0.1,0.1h8.7c0.1,0,0.1,0,0.1-0.1c0,0,0,0,0-0.1v0l0,0V1.1L249.1,0.3L249.1,0.3L249.1,0.3
						C249.1,0.4,249.1,0.3,249.1,0.3"/>
				</g>
			</g>
			<path fill="#006570" d="M249.1,9.1l-9-8.9c0,0,0,0,0,0.1l0,17.5c0,0.1,0,0.1,0,0.1L249.1,9.1z"/>
			<path fill="#006570" d="M251.4,18C251.4,18.1,251.4,18.1,251.4,18l17.5,0.1c0.1,0,0.1,0,0-0.1l-8.7-9.1c-0.1-0.1-0.1-0.1-0.2,0
				L251.4,18z"/>
		</g>
		<g>
			<path fill="#DDDDDD" d="M299.1,7.9h-1c-0.3,0-0.6,0-0.9,0c-0.3,0-0.6,0-0.9-0.1l0,0c0.1,0.1,0.3,0.2,0.4,0.4
				c0.1,0.2,0.3,0.4,0.4,0.6c0.1,0.2,0.2,0.5,0.3,0.8c0.1,0.3,0.1,0.6,0.1,1c0,0.5-0.1,1-0.3,1.5s-0.4,0.9-0.8,1.2
				c-0.3,0.4-0.8,0.6-1.3,0.9c-0.5,0.2-1.1,0.3-1.7,0.3c-0.9,0-1.5,0.1-1.9,0.4c-0.4,0.3-0.6,0.5-0.6,0.8c0,0.3,0.2,0.5,0.5,0.6
				c0.3,0.1,0.7,0.3,1.3,0.4l3.5,0.6c0.3,0.1,0.7,0.1,1,0.2c0.3,0.1,0.6,0.2,0.8,0.4c0.2,0.2,0.4,0.4,0.6,0.7
				c0.1,0.3,0.2,0.6,0.2,1.1c0,0.4-0.1,0.8-0.3,1.2c-0.2,0.4-0.4,0.7-0.8,1.1c-0.4,0.3-0.9,0.6-1.6,0.8c-0.7,0.2-1.5,0.3-2.5,0.3
				c-0.7,0-1.3-0.1-1.9-0.2c-0.6-0.1-1.1-0.3-1.6-0.5c-0.4-0.2-0.8-0.5-1-0.9c-0.2-0.4-0.4-0.8-0.4-1.3c0-0.3,0.1-0.7,0.2-1
				c0.2-0.3,0.4-0.6,0.6-0.8c0.3-0.2,0.6-0.4,0.9-0.6c0.3-0.2,0.7-0.3,1.1-0.3v0c-0.2,0-0.4-0.1-0.6-0.2c-0.2-0.1-0.4-0.2-0.5-0.3
				c-0.2-0.1-0.3-0.3-0.4-0.5s-0.2-0.4-0.2-0.7c0-0.3,0.1-0.5,0.2-0.7c0.1-0.2,0.3-0.4,0.5-0.5c0.2-0.1,0.4-0.2,0.6-0.3
				c0.2-0.1,0.5-0.1,0.7-0.1v0c-0.2-0.1-0.5-0.2-0.8-0.3c-0.3-0.1-0.6-0.4-0.9-0.6s-0.5-0.6-0.7-1c-0.2-0.4-0.3-0.9-0.3-1.6
				c0-0.6,0.1-1.1,0.3-1.6c0.2-0.5,0.5-0.9,0.8-1.3c0.4-0.4,0.8-0.7,1.3-0.9s1.1-0.3,1.7-0.3c0.4,0,0.8,0,1.1,0.1
				c0.3,0.1,0.5,0.1,0.7,0.2h4L299.1,7.9L299.1,7.9z M292.8,17.8c-0.2,0-0.5,0.1-0.8,0.2c-0.3,0.1-0.6,0.3-1,0.4
				c-0.3,0.2-0.6,0.4-0.8,0.7c-0.2,0.3-0.3,0.6-0.3,1c0,0.2,0.1,0.5,0.3,0.8c0.2,0.3,0.4,0.5,0.7,0.7c0.3,0.2,0.7,0.4,1.2,0.5
				c0.5,0.1,1.1,0.2,1.7,0.2c0.5,0,1,0,1.4-0.1c0.5-0.1,0.9-0.2,1.3-0.4c0.4-0.2,0.7-0.4,0.9-0.7c0.2-0.3,0.4-0.7,0.4-1.1
				c0-0.3,0-0.5-0.1-0.7c-0.1-0.2-0.2-0.3-0.4-0.4c-0.2-0.1-0.4-0.2-0.6-0.3s-0.5-0.2-0.8-0.2L292.8,17.8z M290.3,10.6
				c0,0.4,0.1,0.8,0.2,1.1c0.1,0.4,0.3,0.7,0.6,1c0.3,0.3,0.6,0.5,1,0.7c0.4,0.2,0.9,0.3,1.4,0.3c1,0,1.7-0.3,2.3-0.8
				c0.5-0.6,0.8-1.3,0.8-2.2c0-0.4-0.1-0.8-0.2-1.2c-0.1-0.4-0.4-0.7-0.6-1c-0.3-0.3-0.6-0.5-1-0.6c-0.4-0.2-0.8-0.2-1.3-0.2
				c-0.4,0-0.8,0.1-1.2,0.2c-0.4,0.1-0.7,0.3-1,0.6c-0.3,0.2-0.5,0.6-0.6,0.9C290.3,9.7,290.3,10.1,290.3,10.6z"/>
			<path fill="#DDDDDD" d="M300.2,16.7h1.7l0.1-8.9h-2V6.9h3.2c0,0.5,0,1.1-0.1,1.7c0,0.6-0.1,1.2-0.1,1.8h0
				c0.1-0.5,0.3-0.9,0.5-1.4c0.2-0.4,0.5-0.8,0.8-1.2c0.3-0.3,0.6-0.6,1-0.8c0.4-0.2,0.8-0.3,1.3-0.3c0.3,0,0.6,0,0.8,0.1
				c0.2,0,0.4,0.1,0.7,0.2l-0.2,1c-0.2-0.1-0.4-0.2-0.6-0.2c-0.2,0-0.4-0.1-0.7-0.1c-0.5,0-0.9,0.1-1.3,0.4
				c-0.4,0.3-0.8,0.7-1.1,1.1c-0.3,0.5-0.6,1-0.8,1.7c-0.2,0.7-0.3,1.4-0.3,2.1l0,3.7h2v0.9h-4.8L300.2,16.7L300.2,16.7z"/>
			<path fill="#DDDDDD" d="M308.8,12.3c0-0.8,0.1-1.5,0.3-2.2c0.2-0.7,0.5-1.3,0.9-1.8c0.4-0.5,0.9-0.9,1.6-1.2
				c0.6-0.3,1.4-0.5,2.2-0.5s1.5,0.1,2.2,0.5c0.6,0.3,1.1,0.7,1.6,1.2c0.4,0.5,0.7,1.1,0.9,1.8c0.2,0.7,0.3,1.4,0.3,2.2
				c0,0.8-0.1,1.5-0.3,2.2c-0.2,0.7-0.5,1.3-0.9,1.8c-0.4,0.5-0.9,0.9-1.6,1.2c-0.6,0.3-1.4,0.4-2.2,0.4s-1.5-0.1-2.2-0.4
				c-0.6-0.3-1.2-0.7-1.6-1.2c-0.4-0.5-0.7-1.1-0.9-1.8C308.9,13.8,308.8,13,308.8,12.3z M310,12.3c0,0.7,0.1,1.3,0.2,1.9
				c0.2,0.6,0.4,1.1,0.7,1.5c0.3,0.4,0.7,0.7,1.2,1c0.5,0.2,1,0.3,1.7,0.3c0.6,0,1.2-0.1,1.7-0.3c0.5-0.2,0.9-0.5,1.2-1
				c0.3-0.4,0.6-0.9,0.7-1.5c0.2-0.6,0.2-1.2,0.2-1.9c0-0.7-0.1-1.3-0.2-1.9c-0.2-0.6-0.4-1.1-0.7-1.5c-0.3-0.4-0.7-0.7-1.2-1
				c-0.5-0.2-1-0.3-1.7-0.3c-0.6,0-1.2,0.1-1.7,0.3c-0.5,0.2-0.9,0.5-1.2,1c-0.3,0.4-0.6,0.9-0.7,1.5C310.1,11,310,11.6,310,12.3z"
				/>
			<path fill="#DDDDDD" d="M323.6,6.9c0,1.1,0,2.3-0.1,3.4c0,1.1,0,2.2,0,3.4c0,1.1,0.2,1.9,0.7,2.5c0.4,0.5,1.1,0.8,2.1,0.8
				c1.1,0,1.9-0.4,2.5-1.2c0.6-0.8,0.9-1.9,0.9-3.3l0.1-4.6h-1.9V6.9h3l-0.1,9.8h1.7v0.9h-2.8c0-0.4,0-0.7,0.1-1.2s0.1-0.9,0.2-1.4
				h0c-0.3,0.8-0.7,1.5-1.4,2c-0.7,0.5-1.5,0.8-2.3,0.8c-0.5,0-1-0.1-1.5-0.2c-0.5-0.1-0.9-0.4-1.2-0.7c-0.3-0.3-0.6-0.8-0.8-1.3
				c-0.2-0.5-0.3-1.2-0.3-2c0-1,0-2,0-2.9c0-1,0-2,0.1-2.9h-1.8V6.9L323.6,6.9L323.6,6.9z"/>
			<path fill="#DDDDDD" d="M334.2,22h1.7L336,7.8h-2V6.9h3.2c0,0.3,0,0.7,0,1.1S337,8.8,337,9.2l0.1,0c0.4-0.7,0.8-1.3,1.4-1.8
				c0.6-0.5,1.3-0.7,2.3-0.7c0.7,0,1.4,0.1,1.9,0.4c0.6,0.3,1,0.6,1.4,1.1c0.4,0.4,0.6,1,0.8,1.6c0.2,0.6,0.3,1.3,0.3,1.9
				c0,0.9-0.1,1.7-0.3,2.4s-0.5,1.4-1,2c-0.4,0.6-1,1-1.7,1.3c-0.7,0.3-1.5,0.5-2.5,0.5c-0.6,0-1.1,0-1.5-0.1
				c-0.4-0.1-0.8-0.2-1.1-0.3l0,4.5h1.9v0.9h-4.8L334.2,22L334.2,22z M344,12c0-0.6-0.1-1.2-0.2-1.7c-0.1-0.5-0.3-1-0.6-1.4
				c-0.3-0.4-0.6-0.7-1.1-0.9c-0.4-0.2-1-0.3-1.6-0.3c-1,0-1.9,0.4-2.5,1.1c-0.7,0.8-1,1.9-1,3.3l0,4.4c0.3,0.1,0.6,0.3,1.1,0.3
				c0.5,0.1,1,0.1,1.5,0.1c0.8,0,1.4-0.1,2-0.4c0.6-0.3,1-0.6,1.4-1.1c0.4-0.4,0.6-1,0.8-1.6C343.9,13.4,344,12.7,344,12z"/>
			<path fill="#DDDDDD" d="M353.2,17.6v-0.9h1.7l0.1-12.8h-1.8V3h4.6v0.9h-1.7L356,16.7h1.8v0.9H353.2z"/>
			<path fill="#DDDDDD" d="M359.9,16.7h1.8l0.1-12.8h-1.9V3h3.4l5,12.5c0,0.1,0.1,0.2,0.1,0.3c0,0.1,0.1,0.2,0.1,0.3h0
				c0-0.1,0-0.2,0.1-0.3s0.1-0.2,0.1-0.3l5-12.5h3.4v0.9h-1.9l0.1,12.8h1.8v0.9h-4.7v-0.9h1.9l-0.1-11.9h0c0,0.2-0.1,0.4-0.2,0.6
				l-5,12.2H368l-4.9-12.1c-0.1-0.2-0.2-0.4-0.2-0.7h0l-0.1,11.8h1.9v0.9h-4.7L359.9,16.7L359.9,16.7z"/>
			<path fill="#DDDDDD" d="M379,16.7h1.7l0.1-12.8H379V3h6.4c2.4,0,4.2,0.6,5.5,1.9c1.3,1.3,1.9,3.1,1.9,5.4c0,1.1-0.2,2.1-0.5,3.1
				s-0.8,1.7-1.4,2.3c-0.6,0.6-1.4,1.1-2.4,1.5c-1,0.4-2.1,0.5-3.3,0.5H379L379,16.7L379,16.7z M385,16.7c1,0,1.9-0.1,2.8-0.4
				c0.8-0.3,1.5-0.7,2.1-1.3c0.6-0.6,1-1.2,1.3-2c0.3-0.8,0.5-1.7,0.5-2.8c0-1.1-0.2-2-0.5-2.8c-0.3-0.8-0.7-1.4-1.3-2
				c-0.6-0.5-1.3-0.9-2.1-1.2c-0.8-0.3-1.7-0.4-2.7-0.4h-3.2l-0.1,12.8H385z"/>
			<path fill="#DDDDDD" d="M410.6,17.6h-2.8c0-0.4,0-0.8,0.1-1.2c0-0.5,0.1-0.9,0.2-1.2h0c-0.3,0.8-0.7,1.4-1.2,1.9
				c-0.5,0.5-1.3,0.8-2.3,0.8c-0.5,0-0.9-0.1-1.3-0.2c-0.4-0.1-0.8-0.3-1.1-0.5c-0.3-0.2-0.5-0.6-0.7-0.9c-0.2-0.4-0.3-0.8-0.3-1.3
				c0-0.5,0.1-0.9,0.3-1.3c0.2-0.4,0.5-0.7,0.8-0.9c0.3-0.3,0.8-0.5,1.2-0.6c0.5-0.1,1-0.2,1.5-0.3l2.9-0.2c0-0.2,0-0.3,0-0.5
				c0-0.2,0-0.3,0-0.5c0-0.4,0-0.8-0.1-1.2c-0.1-0.4-0.2-0.7-0.4-0.9c-0.2-0.3-0.5-0.5-0.8-0.6c-0.4-0.1-0.8-0.2-1.4-0.2
				c-0.6,0-1.1,0.1-1.5,0.2c-0.4,0.1-0.8,0.2-1,0.3l0,1.8h-1l0-2.5c0.3-0.2,0.7-0.3,1.3-0.5c0.6-0.2,1.4-0.3,2.3-0.3
				c0.7,0,1.3,0.1,1.8,0.3c0.5,0.2,0.9,0.4,1.1,0.8c0.3,0.3,0.5,0.7,0.6,1.1c0.1,0.4,0.2,0.9,0.2,1.3c0,1.3,0,2.4,0,3.5
				c0,1.1,0,2.1-0.1,3.1h1.8L410.6,17.6L410.6,17.6z M402.2,14.9c0,0.6,0.2,1.1,0.6,1.5c0.4,0.4,1,0.5,1.8,0.5
				c0.5,0,0.9-0.1,1.3-0.3c0.4-0.2,0.8-0.5,1-0.8c0.2-0.2,0.3-0.5,0.5-0.7c0.1-0.2,0.2-0.5,0.3-0.7c0.1-0.3,0.1-0.5,0.1-0.8
				c0-0.3,0-0.6,0-1c-1,0-1.8,0.1-2.5,0.1c-0.7,0-1.3,0.1-1.8,0.3c-0.5,0.2-0.8,0.4-1,0.7C402.3,13.9,402.2,14.4,402.2,14.9z"/>
			<path fill="#DDDDDD" d="M413.8,14.6l0,1.8c0.2,0.2,0.6,0.3,1.1,0.4c0.5,0.1,1,0.2,1.5,0.2c0.5,0,1-0.1,1.3-0.2
				c0.4-0.1,0.6-0.3,0.9-0.5c0.2-0.2,0.4-0.4,0.5-0.7s0.1-0.5,0.1-0.7c0-0.5-0.1-0.8-0.4-1.2c-0.3-0.3-0.7-0.6-1.5-0.7l-1.8-0.4
				c-0.9-0.2-1.6-0.5-2.1-1c-0.5-0.4-0.8-1.1-0.8-1.9c0-0.4,0.1-0.9,0.3-1.2c0.2-0.4,0.4-0.7,0.8-1c0.3-0.3,0.7-0.5,1.2-0.6
				c0.5-0.1,1-0.2,1.5-0.2c0.7,0,1.3,0.1,1.8,0.2c0.5,0.1,1,0.3,1.5,0.5l0,2.4h-1l0-1.7c-0.2-0.1-0.5-0.2-0.9-0.3
				c-0.4-0.1-0.8-0.1-1.3-0.1c-0.9,0-1.5,0.2-2,0.5c-0.5,0.4-0.7,0.8-0.7,1.5c0,0.5,0.1,1,0.4,1.3c0.3,0.3,0.8,0.6,1.4,0.7l2,0.4
				c0.9,0.2,1.6,0.5,2.1,0.9c0.4,0.4,0.7,1,0.7,1.8c0,1.1-0.4,1.9-1.1,2.4c-0.7,0.5-1.7,0.8-2.9,0.8c-0.8,0-1.4-0.1-2.1-0.2
				c-0.6-0.1-1.1-0.3-1.4-0.5l-0.1-2.6L413.8,14.6L413.8,14.6z"/>
			<path fill="#DDDDDD" d="M423.9,14.6l0,1.8c0.2,0.2,0.6,0.3,1.1,0.4c0.5,0.1,1,0.2,1.5,0.2c0.5,0,1-0.1,1.3-0.2
				c0.4-0.1,0.6-0.3,0.9-0.5c0.2-0.2,0.4-0.4,0.5-0.7c0.1-0.3,0.1-0.5,0.1-0.7c0-0.5-0.1-0.8-0.4-1.2c-0.3-0.3-0.7-0.6-1.5-0.7
				l-1.8-0.4c-0.9-0.2-1.6-0.5-2.1-1c-0.5-0.4-0.8-1.1-0.8-1.9c0-0.4,0.1-0.9,0.3-1.2c0.2-0.4,0.4-0.7,0.8-1
				c0.3-0.3,0.7-0.5,1.2-0.6c0.5-0.1,1-0.2,1.5-0.2c0.7,0,1.3,0.1,1.8,0.2c0.5,0.1,1,0.3,1.5,0.5l0,2.4h-1l0-1.7
				c-0.2-0.1-0.5-0.2-0.9-0.3c-0.4-0.1-0.8-0.1-1.3-0.1c-0.9,0-1.5,0.2-2,0.5c-0.5,0.4-0.7,0.8-0.7,1.5c0,0.5,0.1,1,0.4,1.3
				c0.3,0.3,0.8,0.6,1.4,0.7l2,0.4c0.9,0.2,1.6,0.5,2.1,0.9c0.4,0.4,0.7,1,0.7,1.8c0,1.1-0.4,1.9-1.1,2.4c-0.7,0.5-1.7,0.8-2.9,0.8
				c-0.8,0-1.5-0.1-2.1-0.2c-0.6-0.1-1.1-0.3-1.4-0.5l-0.1-2.6L423.9,14.6L423.9,14.6z"/>
			<path fill="#DDDDDD" d="M432.8,12.3c0-0.8,0.1-1.5,0.3-2.2c0.2-0.7,0.5-1.3,0.9-1.8c0.4-0.5,0.9-0.9,1.6-1.2
				c0.6-0.3,1.4-0.5,2.2-0.5c0.8,0,1.5,0.1,2.2,0.5c0.6,0.3,1.2,0.7,1.6,1.2c0.4,0.5,0.7,1.1,0.9,1.8c0.2,0.7,0.3,1.4,0.3,2.2
				c0,0.8-0.1,1.5-0.3,2.2c-0.2,0.7-0.5,1.3-0.9,1.8c-0.4,0.5-0.9,0.9-1.6,1.2c-0.6,0.3-1.4,0.4-2.2,0.4s-1.5-0.1-2.2-0.4
				c-0.6-0.3-1.1-0.7-1.6-1.2c-0.4-0.5-0.7-1.1-0.9-1.8C432.9,13.8,432.8,13,432.8,12.3z M433.9,12.3c0,0.7,0.1,1.3,0.2,1.9
				c0.2,0.6,0.4,1.1,0.7,1.5c0.3,0.4,0.7,0.7,1.2,1c0.5,0.2,1,0.3,1.7,0.3c0.6,0,1.2-0.1,1.7-0.3c0.5-0.2,0.9-0.5,1.2-1
				c0.3-0.4,0.6-0.9,0.7-1.5c0.2-0.6,0.2-1.2,0.2-1.9c0-0.7-0.1-1.3-0.2-1.9c-0.2-0.6-0.4-1.1-0.7-1.5c-0.3-0.4-0.7-0.7-1.2-1
				c-0.5-0.2-1-0.3-1.7-0.3c-0.6,0-1.2,0.1-1.7,0.3c-0.5,0.2-0.9,0.5-1.2,1c-0.3,0.4-0.6,0.9-0.7,1.5C434,11,433.9,11.6,433.9,12.3z
				"/>
			<path fill="#DDDDDD" d="M452.5,8c-0.3-0.1-0.6-0.2-1-0.2c-0.4-0.1-0.8-0.1-1.4-0.1c-0.7,0-1.3,0.1-1.8,0.3
				c-0.5,0.2-0.9,0.5-1.3,1c-0.3,0.4-0.6,0.9-0.8,1.5c-0.2,0.6-0.3,1.2-0.3,1.9c0,0.7,0.1,1.3,0.3,1.9c0.2,0.6,0.4,1.1,0.8,1.5
				c0.3,0.4,0.8,0.7,1.3,1c0.5,0.2,1.1,0.3,1.8,0.3c0.8,0,1.4-0.1,1.9-0.2c0.5-0.1,1-0.3,1.3-0.4v1.1c-0.4,0.2-0.8,0.3-1.4,0.4
				c-0.6,0.1-1.2,0.2-1.9,0.2c-0.9,0-1.6-0.1-2.3-0.4c-0.6-0.3-1.2-0.7-1.6-1.2c-0.4-0.5-0.7-1.1-1-1.8c-0.2-0.7-0.3-1.4-0.3-2.2
				c0-0.8,0.1-1.5,0.3-2.2c0.2-0.7,0.6-1.3,1-1.8c0.4-0.5,1-0.9,1.7-1.2c0.7-0.3,1.4-0.5,2.3-0.5c0.8,0,1.4,0.1,1.9,0.2
				c0.5,0.1,0.9,0.2,1.3,0.4v2.6h-1L452.5,8L452.5,8z"/>
			<path fill="#DDDDDD" d="M455.3,16.7h1.8l0.1-8.9h-2.1V6.9h3.2l-0.1,9.8h1.9v0.9h-4.9V16.7z M456.7,2.5c0-0.3,0.1-0.6,0.3-0.8
				c0.2-0.2,0.4-0.3,0.7-0.3c0.3,0,0.5,0.1,0.7,0.3c0.2,0.2,0.3,0.5,0.3,0.8s-0.1,0.6-0.3,0.8c-0.2,0.2-0.4,0.3-0.7,0.3
				c-0.3,0-0.6-0.1-0.7-0.3C456.8,3,456.7,2.8,456.7,2.5z"/>
			<path fill="#DDDDDD" d="M471.8,17.6h-2.8c0-0.4,0-0.8,0.1-1.2c0-0.5,0.1-0.9,0.2-1.2h0c-0.3,0.8-0.7,1.4-1.2,1.9
				c-0.5,0.5-1.3,0.8-2.3,0.8c-0.5,0-0.9-0.1-1.3-0.2c-0.4-0.1-0.8-0.3-1.1-0.5c-0.3-0.2-0.6-0.6-0.7-0.9c-0.2-0.4-0.3-0.8-0.3-1.3
				c0-0.5,0.1-0.9,0.3-1.3c0.2-0.4,0.5-0.7,0.8-0.9c0.3-0.3,0.8-0.5,1.2-0.6c0.5-0.1,1-0.2,1.5-0.3l2.9-0.2c0-0.2,0-0.3,0-0.5
				c0-0.2,0-0.3,0-0.5c0-0.4,0-0.8-0.1-1.2c-0.1-0.4-0.2-0.7-0.4-0.9S468,8,467.6,7.9c-0.4-0.1-0.8-0.2-1.4-0.2
				c-0.6,0-1.1,0.1-1.5,0.2c-0.4,0.1-0.8,0.2-1,0.3l0,1.8h-1l0-2.5c0.3-0.2,0.7-0.3,1.3-0.5c0.6-0.2,1.4-0.3,2.3-0.3
				c0.7,0,1.3,0.1,1.8,0.3c0.5,0.2,0.9,0.4,1.1,0.8c0.3,0.3,0.5,0.7,0.6,1.1c0.1,0.4,0.2,0.9,0.2,1.3c0,1.3,0,2.4,0,3.5
				c0,1.1,0,2.1-0.1,3.1h1.8L471.8,17.6L471.8,17.6z M463.4,14.9c0,0.6,0.2,1.1,0.6,1.5c0.4,0.4,1,0.5,1.8,0.5
				c0.5,0,0.9-0.1,1.3-0.3c0.4-0.2,0.8-0.5,1-0.8c0.2-0.2,0.3-0.5,0.4-0.7c0.1-0.2,0.2-0.5,0.3-0.7c0.1-0.3,0.1-0.5,0.1-0.8
				c0-0.3,0-0.6,0-1c-1,0-1.8,0.1-2.5,0.1c-0.7,0-1.3,0.1-1.8,0.3c-0.5,0.2-0.8,0.4-1,0.7C463.5,13.9,463.4,14.4,463.4,14.9z"/>
			<path fill="#DDDDDD" d="M480.7,17.4c-0.2,0.1-0.5,0.2-1,0.4c-0.4,0.1-0.9,0.2-1.5,0.2c-0.9,0-1.6-0.2-2.1-0.8s-0.7-1.3-0.7-2.4
				c0-1.2,0-2.3,0-3.4c0-1.1,0-2.3,0-3.4h-1.9V6.9h1.9l0-2.8l1.1-0.1l0,2.9h3.6v0.9h-3.6c0,1.1,0,2.2,0,3.3c0,1.1,0,2.2,0,3.3
				c0,0.5,0,0.9,0.1,1.2c0.1,0.3,0.2,0.6,0.3,0.8c0.1,0.2,0.3,0.4,0.6,0.5c0.2,0.1,0.5,0.1,0.9,0.1c0.4,0,0.8-0.1,1.2-0.2
				c0.4-0.1,0.8-0.3,1.1-0.4L480.7,17.4z"/>
			<path fill="#DDDDDD" d="M490.7,17.1c-0.2,0.1-0.4,0.2-0.6,0.3c-0.2,0.1-0.5,0.2-0.8,0.3c-0.3,0.1-0.6,0.1-1,0.2s-0.7,0.1-1,0.1
				c-0.9,0-1.6-0.1-2.3-0.4c-0.7-0.3-1.2-0.7-1.6-1.2c-0.4-0.5-0.8-1.1-1-1.8c-0.2-0.7-0.3-1.5-0.3-2.4c0-0.7,0.1-1.4,0.3-2.1
				c0.2-0.7,0.5-1.2,0.9-1.7c0.4-0.5,0.9-0.9,1.5-1.2c0.6-0.3,1.3-0.4,2-0.4c0.9,0,1.6,0.2,2.2,0.5c0.6,0.3,1,0.8,1.4,1.3
				s0.6,1.1,0.7,1.8c0.1,0.7,0.2,1.3,0.2,2h-8.1c0,1.5,0.4,2.7,1.1,3.5s1.8,1.2,3.2,1.2c0.6,0,1.2-0.1,1.8-0.3
				c0.6-0.2,1.1-0.4,1.5-0.6L490.7,17.1z M490.1,11.2c0-0.5-0.1-0.9-0.2-1.4c-0.1-0.4-0.3-0.8-0.6-1.2c-0.3-0.3-0.6-0.6-1.1-0.8
				s-0.9-0.3-1.5-0.3c-0.7,0-1.2,0.1-1.7,0.4c-0.4,0.3-0.8,0.6-1.1,0.9c-0.3,0.4-0.5,0.8-0.6,1.2c-0.1,0.4-0.2,0.8-0.2,1.1
				L490.1,11.2L490.1,11.2z"/>
		</g>
	</g>
</g>
</svg>
