<?xml version="1.0" encoding="utf-8"?>
<!-- Generator: Adobe Illustrator 15.0.0, SVG Export Plug-In . SVG Version: 6.00 Build 0)  -->
<!DOCTYPE svg PUBLIC "-//W3C//DTD SVG 1.1//EN" "http://www.w3.org/Graphics/SVG/1.1/DTD/svg11.dtd">
<svg version="1.1" id="Layer_1" xmlns="http://www.w3.org/2000/svg" xmlns:xlink="http://www.w3.org/1999/xlink" x="0px" y="0px"
	 width="205px" height="85px" viewBox="0 0 205 85" enable-background="new 0 0 205 85" xml:space="preserve">
<g>
	<polygon fill="#FFFFFF" points="102.673,40.925 102.673,10.392 101.332,10.392 101.332,40.925 70.795,40.925 70.795,42.269 
		101.332,42.269 101.332,72.804 102.673,72.804 102.673,42.269 133.205,42.269 133.205,40.925 	"/>
	<path fill="#FFFFFF" d="M5.472,71.146L39.24,5.139c1.099-2.145,3.104-3.522,5.307-3.915c0.052-0.009,0.098-0.015,0.15-0.024
		c0.165-0.024,0.336-0.045,0.507-0.064c0.089-0.006,0.181-0.013,0.27-0.019c0.131-0.006,0.26-0.009,0.389-0.009
		c0.128,0,0.26,0.003,0.385,0.009c0.095,0.006,0.184,0.013,0.273,0.019c0.171,0.019,0.336,0.04,0.505,0.064
		c0.049,0.009,0.095,0.015,0.147,0.024c2.207,0.392,4.208,1.77,5.31,3.915l33.769,66.006c1.861,3.646,0.419,8.111-3.226,9.978
		c-3.642,1.864-8.114,0.423-9.978-3.226L45.864,24.758L18.67,77.897c-1.861,3.648-6.327,5.09-9.972,3.226
		C5.05,79.257,3.605,74.791,5.472,71.146z"/>
	<path fill="#FFFFFF" d="M117.676,11.931l33.771,66.006c1.102,2.146,3.101,3.525,5.307,3.917c0.049,0.009,0.101,0.019,0.147,0.027
		c0.171,0.019,0.339,0.047,0.509,0.059c0.091,0.009,0.18,0.016,0.274,0.019c0.123,0.003,0.254,0.009,0.383,0.009
		c0.132,0,0.263-0.006,0.389-0.009c0.086-0.003,0.181-0.01,0.27-0.019c0.172-0.012,0.342-0.04,0.505-0.059
		c0.052-0.009,0.104-0.019,0.15-0.027c2.2-0.392,4.205-1.771,5.31-3.917l33.768-66.006c1.864-3.646,0.421-8.111-3.223-9.978
		c-3.645-1.867-8.11-0.419-9.978,3.227l-27.19,53.142L130.88,5.18c-1.864-3.646-6.333-5.093-9.979-3.227
		C117.253,3.82,115.815,8.286,117.676,11.931z"/>
</g>
</svg>
