<?xml version="1.0" encoding="utf-8"?>
<!-- Generator: Adobe Illustrator 19.0.0, SVG Export Plug-In . SVG Version: 6.00 Build 0)  -->
<svg version="1.1" id="Layer_1" xmlns="http://www.w3.org/2000/svg" xmlns:xlink="http://www.w3.org/1999/xlink" x="0px" y="0px"
	 viewBox="0 0 30 20" enable-background="new 0 0 30 20" xml:space="preserve">
<path id="XMLID_15_" fill="#725094" d="M22,17.7H8c-2.8,0-5-2.2-5-5V7c0-2.8,2.2-5,5-5h14c2.8,0,5,2.2,5,5v5.7
	C27,15.4,24.8,17.7,22,17.7z"/>
<g id="XMLID_6_">
	<path id="XMLID_14_" fill="#FFFFFF" d="M14.4,4.5l0.2-1.1l0.8-0.2h0.6c0,0,0.4,0.4,0.4,0.4c0,0,0.1,2.1,0.1,2.1L16.4,4L17,3.6
		l0.8,0.1l0.4,0.5l0.3,1.6l0.9-0.1c0,0,0.4,0.1,0.5,0.2c0.1,0.1,0.4,2.6,0.4,2.6l-0.1,5.7L19,15.7l-2.7,0.9h-2.7l-2.4-1.9l-2-2.1
		l-1.6-2.4c0,0,0.2-0.8,0.5-0.7c0.3,0,1.3,0.2,1.3,0.2s1.3,1.2,1.4,1.3c0.1,0.1,1.2,0.1,1.2,0.1l0.3-0.6l0-1.2l-0.3-0.8l-0.9,0.2
		l-1.1,0.6c0,0-1-0.1-1.1-0.2C9,8.8,8.9,8,8.9,8l0.9-0.8l1.8-1L13,5.8L14.2,7c0,0,0.4,1.5,0.4,1.4C14.5,8.3,14.4,4.5,14.4,4.5z"/>
	<g id="XMLID_7_">
		<path id="XMLID_13_" fill="#725094" d="M15.4,17.2c-3.1,0-5.6-3.2-6.6-4.4c-0.1-0.2-0.2-0.3-0.3-0.3c-0.2-0.2-0.2-0.6,0-0.8
			c0.2-0.2,0.5-0.3,0.8-0.1c0.1,0.1,0.2,0.2,0.4,0.5c0.9,1.1,3.2,4,5.7,4c1.7,0,3-0.4,3.7-1.1c0.7-0.7,0.7-1.7,0.7-2l0-0.1V6.2
			c0-0.2-0.1-0.3-0.3-0.3h-0.2c-0.2,0-0.3,0.1-0.3,0.3c0,0.3-0.3,0.6-0.6,0.6c-0.3,0-0.6-0.3-0.6-0.6c0-0.8,0.6-1.4,1.4-1.4h0.2
			c0.8,0,1.4,0.6,1.4,1.4v6.6c0,0.5,0.1,1.8-1,2.9C18.9,16.7,17.4,17.2,15.4,17.2z"/>
		<path id="XMLID_12_" fill="#725094" d="M18.3,10.7c-0.3,0-0.6-0.3-0.6-0.6V4.4c0-0.2-0.1-0.3-0.3-0.3h-0.2c-0.2,0-0.3,0.1-0.3,0.3
			c0,0.3-0.3,0.6-0.6,0.6c-0.3,0-0.6-0.3-0.6-0.6c0-0.8,0.6-1.4,1.4-1.4h0.2c0.8,0,1.4,0.6,1.4,1.4v5.7
			C18.9,10.4,18.6,10.7,18.3,10.7z"/>
		<path id="XMLID_11_" fill="#725094" d="M16.3,10.1c-0.3,0-0.6-0.3-0.6-0.6V3.9c0-0.2-0.1-0.3-0.3-0.3h-0.2c-0.2,0-0.3,0.1-0.3,0.3
			V9c0,0.3-0.3,0.6-0.6,0.6c-0.3,0-0.6-0.3-0.6-0.6V3.9c0-0.8,0.6-1.4,1.4-1.4h0.2c0.8,0,1.4,0.6,1.4,1.4v5.7
			C16.9,9.9,16.6,10.1,16.3,10.1z"/>
		<path id="XMLID_8_" fill="#725094" d="M9.5,13.4c-0.2,0-0.3-0.1-0.4-0.2l-1.6-2.1c-0.2-0.3-0.4-0.6-0.3-1c0-0.4,0.2-0.7,0.5-1
			L7.7,9c0.2-0.1,0.3-0.2,0.5-0.3c-0.1-0.3-0.1-0.5,0-0.8C8.3,7.5,8.6,7.2,8.9,7l2.5-1.4c0.9-0.4,1.8-0.4,2.4,0
			c0.5,0.3,1.1,1,1.1,2.5c0,0.3-0.3,0.6-0.6,0.6c-0.3,0-0.6-0.3-0.6-0.6c0-0.5-0.1-1.3-0.5-1.5c-0.4-0.2-0.9-0.1-1.3,0.1L9.5,8
			C9.4,8.1,9.3,8.1,9.3,8.2c0,0,0,0.1,0,0.2l0.1,0.2c0.1,0.1,0.3,0.2,0.4,0.1c0.6-0.3,1.6-1,2-1c0.2,0,0.6,0,0.9,0.5
			c0.3,0.6,0.6,2.3-0.3,3.2c-0.3,0.3-0.6,0.4-0.9,0.4c-0.8,0-1.5-0.7-1.6-0.8l-1-1.1c-0.1-0.1-0.3-0.1-0.4,0L8.3,10
			c-0.1,0.1-0.1,0.2-0.1,0.2c0,0,0,0.1,0.1,0.2l1.7,2.1c0.2,0.2,0.1,0.6-0.1,0.8C9.8,13.4,9.6,13.4,9.5,13.4z M10.3,9.7l0.5,0.5
			c0.2,0.2,0.5,0.4,0.7,0.4c0,0,0.1,0,0.1-0.1c0.3-0.4,0.3-1.3,0.2-1.7c-0.3,0.2-0.9,0.5-1.4,0.8C10.4,9.7,10.4,9.7,10.3,9.7z"/>
	</g>
</g>
<g id="XMLID_5_">
</g>
<g id="XMLID_16_">
</g>
<g id="XMLID_17_">
</g>
<g id="XMLID_18_">
</g>
<g id="XMLID_19_">
</g>
<g id="XMLID_20_">
</g>
</svg>
