<?xml version="1.0" encoding="utf-8"?>
<!-- Generator: Adobe Illustrator 19.0.0, SVG Export Plug-In . SVG Version: 6.00 Build 0)  -->
<svg version="1.1" id="Layer_1" xmlns="http://www.w3.org/2000/svg" xmlns:xlink="http://www.w3.org/1999/xlink" x="0px" y="0px"
	 viewBox="0 0 30 20" enable-background="new 0 0 30 20" xml:space="preserve">
<path id="XMLID_15_" fill="none" stroke="#DF1F36" stroke-miterlimit="10" d="M21,17H8c-2.7,0-5-2.2-5-5V7c0-2.8,2.2-5,5-5h13
	c2.8,0,5,2.2,5,5v5C26,14.8,23.8,17,21,17z"/>
<g id="XMLID_6_">
	<path id="XMLID_12_" fill="#DF040B" d="M7.2,11.7V6.7c0-0.3,0.2-0.4,0.4-0.4h1.8c1.5,0,2.4,0.7,2.4,1.9c0,1.3-0.8,1.9-2.3,1.9H8.5
		v1.5c0,0.2-0.1,0.4-0.4,0.4H7.5C7.3,12.1,7.2,11.9,7.2,11.7z M8.4,9.2h0.9c0.7,0,1.1-0.3,1.1-0.9c0-0.6-0.4-0.9-1.1-0.9H8.4V9.2z"
		/>
	<path id="XMLID_9_" fill="#DF040B" d="M15.5,10.6h-2.1L13,11.7c-0.1,0.3-0.2,0.3-0.4,0.3H12c-0.2,0-0.4-0.2-0.3-0.3l2-5.1
		c0.1-0.2,0.1-0.3,0.4-0.3h0.7c0.3,0,0.4,0.1,0.4,0.3l2,5.1c0.1,0.1-0.1,0.3-0.3,0.3h-0.6c-0.2,0-0.4-0.1-0.4-0.3L15.5,10.6z
		 M13.7,9.6h1.6l-0.8-2.1L13.7,9.6z"/>
	<path id="XMLID_7_" fill="#DF040B" d="M18,11.6V6.7c0-0.2,0.1-0.4,0.3-0.4H19c0.2,0,0.4,0.1,0.4,0.4v4.2h2.4c0.2,0,0.4,0.1,0.4,0.4
		v0.4c0,0.2-0.1,0.4-0.4,0.4h-3.3C18.2,12,18,11.9,18,11.6z"/>
</g>
<g id="XMLID_5_">
</g>
<g id="XMLID_16_">
</g>
<g id="XMLID_17_">
</g>
<g id="XMLID_18_">
</g>
<g id="XMLID_19_">
</g>
<g id="XMLID_20_">
</g>
</svg>
