<?xml version="1.0" encoding="utf-8"?>
<!-- Generator: Adobe Illustrator 19.0.0, SVG Export Plug-In . SVG Version: 6.00 Build 0)  -->
<svg version="1.1" id="Layer_1" xmlns="http://www.w3.org/2000/svg" xmlns:xlink="http://www.w3.org/1999/xlink" x="0px" y="0px"
	 viewBox="0 0 30 20" enable-background="new 0 0 30 20" xml:space="preserve">
<path id="XMLID_23_" fill="#FFFFFF" stroke="#1F140F" stroke-miterlimit="10" d="M27,13H3c-0.5,0-1-0.4-1-1V7.2c0-0.6,0.4-1,1-1h24
	c0.6,0,1,0.4,1,1V12C28,12.6,27.6,13,27,13z"/>
<g id="XMLID_6_">
	<path id="XMLID_20_" fill="#1F140F" d="M5.2,11.2V7.7c0-0.2,0.1-0.3,0.3-0.3h1.2c1.1,0,1.7,0.5,1.7,1.4c0,0.9-0.6,1.3-1.6,1.3H6.1
		v1.1c0,0.2-0.1,0.3-0.2,0.3H5.4C5.3,11.5,5.2,11.4,5.2,11.2z M6.1,9.5h0.6c0.5,0,0.8-0.2,0.8-0.7c0-0.4-0.3-0.6-0.8-0.6H6.1V9.5z"
		/>
	<path id="XMLID_18_" fill="#1F140F" d="M9.7,8.9c0.1-0.4,0.4-0.6,0.7-0.6c0.2,0,0.4,0.1,0.5,0.2c0.1,0.1,0.1,0.1,0.1,0.2l-0.2,0.4
		c-0.1,0.2-0.2,0.1-0.3,0.1c-0.1,0-0.2-0.1-0.3-0.1c-0.4,0-0.6,0.4-0.6,1v1.1c0,0.2-0.1,0.3-0.2,0.3H9.1c-0.1,0-0.2-0.1-0.2-0.3V8.6
		c0-0.1,0.1-0.2,0.2-0.2h0.2C9.6,8.4,9.6,8.5,9.7,8.9z"/>
	<path id="XMLID_15_" fill="#1F140F" d="M11.3,9.9c0-0.9,0.7-1.6,1.6-1.6c1,0,1.6,0.6,1.6,1.6s-0.6,1.6-1.6,1.6
		C12,11.5,11.3,10.9,11.3,9.9z M13.8,9.9c0-0.5-0.4-0.9-0.8-0.9c-0.5,0-0.8,0.4-0.8,0.9c0,0.5,0.4,0.9,0.8,0.9
		C13.4,10.8,13.8,10.5,13.8,9.9z"/>
	<path id="XMLID_12_" fill="#1F140F" d="M17.4,11.3l-1-1.3H16l0,1.2c0,0.2-0.1,0.3-0.3,0.3h-0.4c-0.2,0-0.2-0.1-0.2-0.3V7.7
		c0-0.2,0.1-0.3,0.3-0.3h1.4c1,0,1.6,0.4,1.6,1.2c0,0.6-0.4,1.1-1,1.2l1.1,1.3c0.1,0.1,0,0.3-0.2,0.3h-0.5
		C17.6,11.5,17.5,11.4,17.4,11.3z M16,9.4h0.7c0.5,0,0.7-0.2,0.7-0.6c0-0.4-0.2-0.6-0.7-0.6H16V9.4z"/>
	<path id="XMLID_9_" fill="#1F140F" d="M18.8,10c0-0.9,0.6-1.6,1.6-1.6c0.9,0,1.5,0.6,1.5,1.5v0.1c0,0.1,0,0.2-0.2,0.2h-2.1
		c0.1,0.5,0.4,0.7,0.9,0.7c0.4,0,0.6-0.1,0.9-0.4c0.1-0.1,0.2,0,0.2,0l0.2,0.3c0.1,0.1,0,0.2,0,0.2c-0.3,0.3-0.8,0.4-1.3,0.4
		C19.5,11.5,18.8,10.9,18.8,10z M19.6,9.7h1.5c0-0.4-0.3-0.7-0.7-0.7C20,9,19.7,9.3,19.6,9.7z"/>
	<path id="XMLID_7_" fill="#1F140F" d="M22.4,11.2c-0.1,0-0.1-0.1-0.1-0.2l0.2-0.3c0-0.1,0.1-0.1,0.2-0.1c0.3,0.2,0.6,0.3,0.9,0.3
		c0.3,0,0.5-0.1,0.5-0.3c0-0.2-0.2-0.3-0.6-0.3c-0.4-0.1-1.1-0.2-1.1-0.9c0-0.6,0.5-1,1.2-1c0.6,0,0.9,0.2,1.2,0.3
		c0.1,0,0.1,0.1,0.1,0.2l-0.2,0.3c0,0.1-0.1,0.1-0.2,0.1C24.2,9.1,23.9,9,23.6,9c-0.3,0-0.5,0.1-0.5,0.3c0,0.2,0.2,0.2,0.6,0.3
		c0.4,0.1,1.1,0.3,1.1,0.9c0,0.6-0.5,1-1.3,1C23,11.5,22.6,11.4,22.4,11.2z"/>
</g>
<g id="XMLID_5_">
</g>
<g id="XMLID_24_">
</g>
<g id="XMLID_25_">
</g>
<g id="XMLID_26_">
</g>
<g id="XMLID_27_">
</g>
<g id="XMLID_28_">
</g>
</svg>
