<?xml version="1.0" encoding="utf-8"?>
<!-- Generator: Adobe Illustrator 19.0.0, SVG Export Plug-In . SVG Version: 6.00 Build 0)  -->
<svg version="1.1" id="Layer_1" xmlns="http://www.w3.org/2000/svg" xmlns:xlink="http://www.w3.org/1999/xlink" x="0px" y="0px"
	 viewBox="0 0 30 20" enable-background="new 0 0 30 20" xml:space="preserve">
<path id="XMLID_13_" fill="#009640" d="M22,17.7H8c-2.8,0-5-2.2-5-5V7c0-2.8,2.2-5,5-5h14c2.8,0,5,2.2,5,5v5.7
	C27,15.4,24.8,17.7,22,17.7z"/>
<g id="XMLID_6_">
	<g id="XMLID_7_">
		<path id="XMLID_10_" fill="#FFFFFF" d="M13.5,12.5L13.5,12.5c-0.5,0.2-1.1,0.4-1.7,0.4c-1.8,0-3.1-1.3-3.1-3.1
			c0-1.8,1.3-3.1,3.1-3.1c1.8,0,3.1,1.3,3.1,3.1c0,0.7-0.2,1.4-0.6,1.9l0.7,0.8c0.1,0.1-0.1,0.4-0.3,0.4H14
			C13.8,12.9,13.7,12.7,13.5,12.5z M12.6,11.6L12,11c-0.2-0.2-0.3-0.6-0.1-0.8l0.1-0.1c0.3-0.2,0.6-0.1,0.8,0.2l0.5,0.6
			c0.1-0.3,0.2-0.6,0.2-1c0-1.1-0.7-1.9-1.8-1.9c-1.1,0-1.7,0.8-1.7,1.9s0.7,1.9,1.7,1.9C12.1,11.7,12.3,11.7,12.6,11.6z"/>
		<path id="XMLID_8_" fill="#FFFFFF" d="M15.7,9.8c0-1.8,1.2-3.1,3.1-3.1c1.1,0,1.9,0.5,2.4,1c0.1,0.1,0.1,0.2,0,0.4l-0.5,0.6
			c-0.1,0.1-0.3,0.1-0.4,0C19.9,8.3,19.6,8,18.8,8c-1,0-1.7,0.7-1.7,1.9c0,1.1,0.7,1.9,1.7,1.9c0.7,0,1.1-0.4,1.5-0.7
			c0.1-0.1,0.3-0.1,0.4,0l0.5,0.6c0.1,0.1,0.1,0.2,0,0.4c-0.5,0.5-1.2,1-2.4,1C17,12.9,15.7,11.6,15.7,9.8z"/>
	</g>
</g>
<g id="XMLID_5_">
</g>
<g id="XMLID_14_">
</g>
<g id="XMLID_15_">
</g>
<g id="XMLID_16_">
</g>
<g id="XMLID_17_">
</g>
<g id="XMLID_18_">
</g>
</svg>
