<?xml version="1.0" encoding="utf-8"?>
<!-- Generator: Adobe Illustrator 19.0.0, SVG Export Plug-In . SVG Version: 6.00 Build 0)  -->
<svg version="1.1" id="Layer_1" xmlns="http://www.w3.org/2000/svg" xmlns:xlink="http://www.w3.org/1999/xlink" x="0px" y="0px"
	 viewBox="0 0 30 20" enable-background="new 0 0 30 20" xml:space="preserve">
<path id="XMLID_15_" fill="#E55511" d="M22,17.7H8c-2.8,0-5-2.2-5-5V7c0-2.8,2.2-5,5-5h14c2.8,0,5,2.2,5,5v5.7
	C27,15.4,24.8,17.7,22,17.7z"/>
<g id="XMLID_6_">
	<path id="XMLID_13_" fill="#FFFFFF" d="M6.4,12.2c-0.1-0.1-0.2-0.2-0.1-0.3l0.4-0.7C6.8,11,6.8,11,7,11.1c0.4,0.3,1,0.7,1.8,0.7
		c0.7,0,1.1-0.2,1.1-0.7c0-0.5-0.6-0.7-1.3-0.8c-1-0.2-1.9-0.5-1.9-1.8c0-1.1,0.9-1.8,2.3-1.8c1,0,1.7,0.4,2.2,0.7
		c0.1,0.1,0.2,0.2,0.1,0.3l-0.4,0.7c-0.1,0.1-0.2,0.2-0.3,0.1C10.1,8.2,9.6,7.8,9,7.8c-0.6,0-1.1,0.2-1.1,0.7c0,0.5,0.6,0.6,1.3,0.7
		c1.1,0.2,2,0.7,2,1.8c0,1.2-0.9,1.8-2.4,1.8C7.8,12.9,6.9,12.5,6.4,12.2z"/>
	<path id="XMLID_10_" fill="#FFFFFF" d="M16,11.3h-2.2l-0.5,1.2c-0.1,0.3-0.2,0.3-0.5,0.3h-0.6c-0.2,0-0.4-0.2-0.3-0.3l2.1-5.3
		c0.1-0.2,0.1-0.3,0.5-0.3h0.8c0.3,0,0.4,0.1,0.5,0.3l2.1,5.3c0.1,0.1-0.1,0.3-0.3,0.3H17c-0.3,0-0.4-0.1-0.5-0.3L16,11.3z
		 M14.1,10.3h1.6l-0.8-2.2L14.1,10.3z"/>
	<path id="XMLID_7_" fill="#FFFFFF" d="M19,12.4V7.3c0-0.3,0.2-0.4,0.4-0.4h1.9c1.6,0,2.5,0.7,2.5,2c0,1.3-0.8,2-2.5,2h-0.9v1.6
		c0,0.2-0.1,0.4-0.4,0.4h-0.6C19.1,12.8,19,12.7,19,12.4z M20.3,9.8h0.9c0.8,0,1.2-0.3,1.2-1c0-0.6-0.4-1-1.2-1h-0.9V9.8z"/>
</g>
<g id="XMLID_5_">
</g>
<g id="XMLID_16_">
</g>
<g id="XMLID_17_">
</g>
<g id="XMLID_18_">
</g>
<g id="XMLID_19_">
</g>
<g id="XMLID_20_">
</g>
</svg>
