<?xml version="1.0" encoding="utf-8"?>
<!-- Generator: Adobe Illustrator 19.0.0, SVG Export Plug-In . SVG Version: 6.00 Build 0)  -->
<svg version="1.1" id="Layer_1" xmlns="http://www.w3.org/2000/svg" xmlns:xlink="http://www.w3.org/1999/xlink" x="0px" y="0px"
	 viewBox="0 0 30 20" enable-background="new 0 0 30 20" xml:space="preserve">
<path id="XMLID_12_" fill="#F7941E" d="M22,17.7H8c-2.7,0-5-2.2-5-5V7c0-2.8,2.2-5,5-5h14c2.8,0,5,2.2,5,5v5.7
	C27,15.4,24.8,17.7,22,17.7z"/>
<g id="XMLID_6_">
	<path id="XMLID_10_" fill="#FFFFFF" d="M9.3,12.1c-0.1-0.1-0.2-0.2-0.1-0.3l0.4-0.7C9.7,11,9.7,11,9.9,11.1c0.4,0.3,1,0.7,1.8,0.7
		c0.7,0,1.1-0.2,1.1-0.7c0-0.5-0.6-0.7-1.3-0.8c-1-0.2-1.9-0.6-1.9-1.8c0-1.1,0.9-1.8,2.3-1.8c1,0,1.7,0.4,2.2,0.7
		c0.1,0.1,0.2,0.2,0.1,0.3l-0.4,0.7c-0.1,0.1-0.2,0.2-0.3,0.1c-0.4-0.3-0.9-0.7-1.6-0.7c-0.6,0-1.1,0.2-1.1,0.7
		c0,0.5,0.6,0.6,1.3,0.8c1.1,0.3,2,0.7,2,1.8c0,1.2-0.9,1.8-2.4,1.8C10.6,12.9,9.8,12.5,9.3,12.1z"/>
	<path id="XMLID_7_" fill="#FFFFFF" d="M15.4,12.4l0.1-5.1c0-0.3,0.2-0.4,0.4-0.4l1.8,0c2,0,3.2,1.1,3.2,3c0,1.8-1.3,3-3.3,2.9
		l-1.8,0C15.5,12.8,15.4,12.7,15.4,12.4z M17.5,11.7c1.2,0,1.9-0.6,1.9-1.8c0-1.1-0.7-1.8-1.9-1.8l-0.8,0l0,3.6L17.5,11.7z"/>
</g>
<g id="XMLID_5_">
</g>
<g id="XMLID_13_">
</g>
<g id="XMLID_14_">
</g>
<g id="XMLID_15_">
</g>
<g id="XMLID_16_">
</g>
<g id="XMLID_17_">
</g>
</svg>
