<?xml version="1.0" encoding="utf-8"?>
<!-- Generator: Adobe Illustrator 19.0.0, SVG Export Plug-In . SVG Version: 6.00 Build 0)  -->
<svg version="1.1" id="Layer_1" xmlns="http://www.w3.org/2000/svg" xmlns:xlink="http://www.w3.org/1999/xlink" x="0px" y="0px"
	 viewBox="0 0 30 20" enable-background="new 0 0 30 20" xml:space="preserve">
<path id="XMLID_15_" fill="#1DB1CC" d="M22,17.7H8c-2.7,0-5-2.2-5-5V7c0-2.8,2.2-5,5-5h14c2.8,0,5,2.2,5,5v5.7
	C27,15.4,24.8,17.7,22,17.7z"/>
<g id="XMLID_6_">
	<g id="video_x5F_sd_31_">
		<path id="XMLID_12_" fill="none" stroke="#FFFFFF" stroke-width="0.75" d="M17.3,5.1h-4.1c-1.7,0-3,1.3-3,3v3.7c0,1.7,1.4,3,3,3
			h4.1c1.7,0,3-1.3,3-3V8.1C20.3,6.5,19,5.1,17.3,5.1z"/>
	</g>
	<rect id="XMLID_11_" x="13.5" y="3.3" fill="#1DB1CC" width="3.9" height="13.1"/>
	<rect id="XMLID_10_" x="7.9" y="7.9" fill="#1DB1CC" width="14.1" height="3.8"/>
	<g id="XMLID_7_">
		<path id="XMLID_8_" fill="#FFFFFF" d="M12.8,10.1c0-1.8,1.3-3.1,3.1-3c1.1,0,1.9,0.5,2.4,1.1c0.1,0.1,0.1,0.2,0,0.4L17.7,9
			c-0.1,0.1-0.3,0.1-0.4,0c-0.3-0.4-0.7-0.7-1.5-0.8c-1,0-1.7,0.7-1.7,1.8c0,1.1,0.7,1.9,1.7,1.9c0.7,0,1.1-0.4,1.5-0.7
			c0.1-0.1,0.3-0.1,0.4,0l0.5,0.6c0.1,0.1,0.1,0.2,0,0.4c-0.5,0.5-1.3,1-2.4,1C14,13.2,12.7,11.9,12.8,10.1z"/>
	</g>
</g>
<g id="XMLID_5_">
</g>
<g id="XMLID_16_">
</g>
<g id="XMLID_17_">
</g>
<g id="XMLID_18_">
</g>
<g id="XMLID_19_">
</g>
<g id="XMLID_20_">
</g>
</svg>
