<?xml version="1.0" encoding="utf-8"?>
<!-- Generator: Adobe Illustrator 19.0.0, SVG Export Plug-In . SVG Version: 6.00 Build 0)  -->
<svg version="1.1" id="Layer_1" xmlns="http://www.w3.org/2000/svg" xmlns:xlink="http://www.w3.org/1999/xlink" x="0px" y="0px"
	 viewBox="0 0 30 20" enable-background="new 0 0 30 20" xml:space="preserve">
<path id="XMLID_13_" fill="#942C80" d="M22,17.7H8c-2.7,0-5-2.2-5-5V7c0-2.8,2.2-5,5-5h14c2.8,0,5,2.2,5,5v5.7
	C27,15.4,24.8,17.7,22,17.7z"/>
<g id="XMLID_6_">
	<g id="XMLID_10_">
		<path id="XMLID_11_" fill="#FFFFFF" d="M13.7,5.6l1.3,4l1.4-4c0.1-0.3,0.2-0.3,0.5-0.3l0.7,0c0.2,0,0.4,0.2,0.3,0.3l-2.2,5.3
			c-0.1,0.2-0.2,0.3-0.5,0.3l-0.5,0c-0.3,0-0.4-0.1-0.5-0.3l-2.1-5.3c-0.1-0.1,0.1-0.3,0.3-0.3l0.7,0C13.5,5.2,13.6,5.3,13.7,5.6z"
			/>
	</g>
	<g id="XMLID_7_">
		<path id="XMLID_8_" fill="#FFFFFF" d="M10.1,13.1l9.8,0c0.2,0,0.4,0.1,0.4,0.4l0,0.6c0,0.2-0.1,0.4-0.4,0.4l-9.8,0
			c-0.3,0-0.4-0.1-0.4-0.4l0-0.6C9.7,13.2,9.8,13.1,10.1,13.1z"/>
	</g>
</g>
<g id="XMLID_5_">
</g>
<g id="XMLID_14_">
</g>
<g id="XMLID_15_">
</g>
<g id="XMLID_16_">
</g>
<g id="XMLID_17_">
</g>
<g id="XMLID_18_">
</g>
</svg>
